<?xml version="1.0" standalone="no"?>

<svg version="1.0" xmlns="http://www.w3.org/2000/svg"
 width="2400.000000pt" height="2362.000000pt" viewBox="0 0 2400.000000 2362.000000"
 preserveAspectRatio="xMidYMid meet">

<g transform="translate(0.000000,2362.000000) scale(0.100000,-0.100000)"
fill="#fff" stroke="none">
<path d="M15263 17495 c-201 -54 -357 -210 -430 -430 -25 -75 -27 -92 -28
-265 0 -157 4 -202 23 -293 39 -181 122 -422 226 -649 l25 -57 -197 -65 c-108
-35 -276 -83 -372 -106 -250 -60 -297 -76 -365 -125 -194 -138 -171 -304 63
-453 82 -53 301 -160 427 -210 277 -109 523 -166 875 -200 l175 -17 53 -80
c369 -557 659 -1276 766 -1895 54 -308 72 -691 45 -941 -18 -164 -16 -374 4
-439 24 -81 48 -103 107 -98 60 6 120 46 231 157 321 320 625 943 742 1521 63
306 82 529 74 865 -10 414 -63 740 -194 1179 -40 135 -45 161 -33 168 210 122
301 188 429 312 325 315 447 629 352 901 -32 89 -89 175 -180 266 -124 124
-223 169 -406 184 -194 16 -517 -52 -828 -176 -53 -22 -102 -39 -107 -39 -5 0
-55 66 -111 148 -189 272 -513 566 -799 725 -195 108 -418 152 -567 112z"/>
<path d="M19600 15960 c-272 -33 -561 -129 -773 -256 -95 -57 -237 -166 -289
-222 -105 -112 -176 -256 -165 -330 9 -51 60 -97 134 -118 49 -14 87 -16 243
-11 102 3 220 1 263 -4 235 -29 418 -166 502 -377 39 -97 70 -262 47 -248 -5
3 -56 10 -114 16 -378 38 -754 -114 -1071 -433 -314 -316 -436 -727 -348
-1168 56 -278 195 -550 343 -669 111 -90 297 -182 444 -221 112 -30 298 -37
396 -15 260 58 425 251 463 541 8 66 -16 180 -52 246 -73 136 -224 245 -454
329 -108 39 -155 68 -213 129 -112 121 -126 278 -40 450 51 102 141 183 237
213 104 33 222 32 297 -3 204 -96 326 -330 420 -804 113 -572 427 -906 993
-1056 264 -70 380 -43 406 95 14 76 -4 150 -69 278 -80 161 -94 227 -87 422 6
179 35 329 121 626 101 348 136 575 137 880 0 359 -53 628 -177 889 -210 443
-582 711 -1119 806 -108 19 -371 27 -475 15z"/>
<path d="M5690 15430 c-420 -40 -879 -173 -1255 -365 -153 -78 -554 -320 -790
-478 -461 -308 -797 -618 -1095 -1012 -281 -370 -389 -616 -447 -1020 -25
-170 -25 -805 0 -1130 121 -1568 653 -3107 1471 -4252 431 -605 981 -1143
1546 -1513 543 -356 904 -312 1052 127 62 186 72 278 72 688 1 373 -6 491 -45
840 -69 614 -231 1310 -468 2017 l-69 207 96 84 c122 107 350 339 468 478 200
233 350 451 449 654 87 177 117 281 118 411 1 95 -1 105 -31 167 -111 225
-402 284 -817 165 -194 -55 -541 -216 -789 -366 -66 -40 -122 -72 -126 -72 -4
0 -49 87 -100 193 -52 105 -151 303 -222 440 -70 136 -128 249 -128 252 0 2
55 43 123 91 655 469 1234 986 1612 1439 289 346 473 677 541 970 28 119 26
324 -4 428 -89 310 -292 478 -657 542 -110 19 -376 27 -505 15z"/>
<path d="M13160 14824 c-478 -58 -780 -183 -1056 -438 -200 -183 -391 -473
-484 -734 -18 -51 -34 -92 -37 -92 -2 0 -40 32 -85 71 -106 91 -230 173 -321
212 -56 24 -91 31 -157 35 -79 4 -89 2 -140 -25 -81 -43 -114 -94 -118 -188
-6 -102 21 -184 121 -375 44 -85 98 -189 119 -230 101 -197 134 -508 143
-1350 6 -502 16 -736 41 -940 103 -865 387 -1379 822 -1491 100 -25 274 -26
397 0 214 44 393 150 507 300 223 294 267 768 122 1321 -51 195 -88 287 -292
720 -198 423 -283 639 -347 885 -42 162 -52 220 -64 368 -45 548 234 1025 650
1113 95 20 256 14 353 -15 147 -43 266 -113 381 -222 136 -129 219 -288 284
-541 47 -181 63 -313 68 -556 10 -401 -32 -733 -168 -1327 -63 -275 -79 -389
-79 -585 0 -379 93 -661 280 -851 152 -153 365 -220 607 -190 593 73 994 482
1161 1186 64 270 87 517 79 855 -9 374 -49 629 -143 920 -176 547 -501 1086
-890 1474 -368 367 -775 588 -1239 672 -87 15 -435 28 -515 18z"/>
<path d="M8380 13754 c-285 -18 -558 -87 -812 -207 -442 -209 -828 -586 -960
-937 -29 -77 -32 -96 -32 -200 -1 -108 1 -118 27 -162 38 -66 98 -99 188 -106
83 -6 155 8 314 58 264 83 439 77 617 -23 219 -124 387 -402 474 -786 35 -155
36 -151 -43 -190 -405 -199 -816 -521 -1072 -841 -298 -371 -484 -819 -532
-1278 -17 -163 -6 -504 20 -658 67 -392 202 -725 421 -1037 80 -113 289 -324
390 -393 169 -116 367 -203 560 -246 138 -30 408 -33 538 -5 489 105 903 459
1031 882 46 152 44 423 -4 589 -120 413 -446 591 -1180 646 -245 18 -376 56
-500 144 -217 156 -293 447 -205 790 40 156 100 252 209 337 124 95 256 142
406 142 147 0 264 -41 392 -138 113 -84 185 -178 307 -399 144 -259 271 -431
437 -591 353 -340 758 -502 1412 -565 246 -24 370 -1 425 81 21 30 23 43 19
101 -5 81 -47 174 -136 305 -110 163 -193 351 -257 582 -73 265 -99 455 -119
865 -34 679 -90 1121 -195 1532 -137 534 -366 958 -649 1202 -285 245 -755
446 -1146 491 -109 12 -270 19 -345 15z"/>
</g>
</svg>
